<svg xmlns="http://www.w3.org/2000/svg" xmlns:xlink="http://www.w3.org/1999/xlink" width="30px" height="30px" viewBox="0 0 30 30" version="1.1">
<g id="surface1">
<path stroke="none" d="M 15 2.5 C 8.09375 2.5 2.5 8.09375 2.5 15 C 2.5 21.90625 8.09375 27.5 15 27.5 C 21.90625 27.5 27.5 21.90625 27.5 15 C 27.5 8.09375 21.90625 2.5 15 2.5 Z M 15 6.25 C 17.070312 6.25 18.75 7.929688 18.75 10 C 18.75 12.074219 17.070312 13.75 15 13.75 C 12.929688 13.75 11.25 12.074219 11.25 10 C 11.25 7.929688 12.929688 6.25 15 6.25 Z M 15 24 C 11.871094 24 9.117188 22.398438 7.5 19.972656 C 7.53125 17.496094 12.503906 16.125 15 16.125 C 17.496094 16.125 22.460938 17.496094 22.5 19.972656 C 20.882812 22.398438 18.128906 24 15 24 Z M 15 24" fill="currentColor" />
</g>
</svg>
