<svg width="37" height="37" viewBox="0 0 37 37" fill="none" xmlns="http://www.w3.org/2000/svg">
<path fill-rule="evenodd" clip-rule="evenodd" d="M31.6509 6.98425C32.1025 6.5327 32.1025 5.80061 31.6509 5.34906C31.1994 4.89752 30.4673 4.89752 30.0157 5.34906L5.34907 30.0157C4.89753 30.4673 4.89753 31.1994 5.34907 31.6509C5.80062 32.1025 6.53272 32.1025 6.98426 31.6509L11.3732 27.262C13.4796 28.2535 15.9057 28.9062 18.5 28.9062C22.6379 28.9062 26.3476 27.2457 29.0151 25.1985C30.3514 24.1729 31.4549 23.0287 32.2345 21.9053C32.9926 20.8129 33.5312 19.6142 33.5312 18.5C33.5312 17.3858 32.9926 16.187 32.2345 15.0947C31.4549 13.9713 30.3514 12.8271 29.0151 11.8015C28.611 11.4913 28.1829 11.1901 27.7331 10.9021L31.6509 6.98425ZM26.0534 12.5817L23.3234 15.3118C23.9287 16.2257 24.2812 17.3217 24.2812 18.5C24.2812 21.6929 21.6929 24.2812 18.5 24.2812C17.3217 24.2812 16.2257 23.9287 15.3118 23.3234L13.1277 25.5075C14.7704 26.1767 16.5916 26.5937 18.5 26.5937C22.0251 26.5937 25.2528 25.1709 27.6071 23.364C28.7817 22.4625 29.7101 21.4869 30.3347 20.5869C30.9809 19.6558 31.2188 18.9275 31.2188 18.5C31.2188 18.0725 30.9809 17.3442 30.3347 16.4131C29.7101 15.5131 28.7817 14.5375 27.6071 13.636C27.1243 13.2654 26.6048 12.911 26.0534 12.5817ZM17.0045 21.6307C17.4573 21.8474 17.9645 21.9687 18.5 21.9687C20.4157 21.9687 21.9688 20.4157 21.9688 18.5C21.9688 17.9645 21.8474 17.4573 21.6307 17.0045L17.0045 21.6307Z" fill="currentColor"/>
<path d="M18.5 8.09374C20.1698 8.09374 21.7698 8.36413 23.2598 8.82121C23.4375 8.87575 23.4906 9.09926 23.3591 9.23074L21.8789 10.711C21.817 10.7728 21.7274 10.7977 21.6422 10.7776C20.6339 10.54 19.5809 10.4062 18.5 10.4062C14.9749 10.4062 11.7472 11.8291 9.39287 13.636C8.21828 14.5375 7.28988 15.5131 6.66528 16.4131C6.01914 17.3442 5.78125 18.0725 5.78125 18.5C5.78125 18.9275 6.01914 19.6558 6.66528 20.5869C7.23282 21.4047 8.05118 22.2849 9.07715 23.1152C9.19395 23.2097 9.20491 23.3849 9.09866 23.4912L7.81141 24.7784C7.7211 24.8687 7.57705 24.8765 7.47862 24.7952C6.36877 23.8775 5.44431 22.8835 4.76545 21.9053C4.00736 20.8129 3.46875 19.6142 3.46875 18.5C3.46875 17.3858 4.00736 16.187 4.76545 15.0947C5.54508 13.9713 6.64863 12.8271 7.98492 11.8015C10.6524 9.75424 14.3621 8.09374 18.5 8.09374Z" fill="currentColor"/>
<path d="M18.5 12.7187C18.7672 12.7187 19.0302 12.7369 19.2878 12.772C19.4837 12.7987 19.5545 13.0353 19.4147 13.1751L17.3706 15.2193C16.3634 15.5659 15.566 16.3634 15.2193 17.3705L13.1751 19.4147C13.0353 19.5545 12.7987 19.4837 12.772 19.2878C12.7369 19.0302 12.7188 18.7672 12.7188 18.5C12.7188 15.3071 15.3071 12.7187 18.5 12.7187Z" fill="currentColor"/>
<rect x="1" y="1" width="35" height="35" stroke="currentColor" stroke-width="2"/>
</svg>
