<svg width="31" height="21" viewBox="0 0 31 21" fill="none" xmlns="http://www.w3.org/2000/svg">
<path class="view" fill-rule="evenodd" clip-rule="evenodd" d="M9.71875 10.5C9.71875 7.3071 12.3071 4.71875 15.5 4.71875C18.6929 4.71875 21.2812 7.3071 21.2812 10.5C21.2812 13.6929 18.6929 16.2812 15.5 16.2812C12.3071 16.2812 9.71875 13.6929 9.71875 10.5ZM15.5 7.03125C13.5843 7.03125 12.0312 8.58426 12.0312 10.5C12.0312 12.4157 13.5843 13.9688 15.5 13.9688C17.4157 13.9688 18.9688 12.4157 18.9688 10.5C18.9688 8.58426 17.4157 7.03125 15.5 7.03125Z" fill="currentColor"/>
<path fill-rule="evenodd" clip-rule="evenodd" d="M3.66528 8.41313C3.01914 9.34419 2.78125 10.0725 2.78125 10.5C2.78125 10.9275 3.01914 11.6558 3.66528 12.5869C4.28988 13.4869 5.21828 14.4625 6.39287 15.364C8.74716 17.1709 11.9749 18.5938 15.5 18.5938C19.0251 18.5938 22.2528 17.1709 24.6071 15.364C25.7817 14.4625 26.7101 13.4869 27.3347 12.5869C27.9809 11.6558 28.2188 10.9275 28.2188 10.5C28.2188 10.0725 27.9809 9.34419 27.3347 8.41313C26.7101 7.51311 25.7817 6.53748 24.6071 5.63599C22.2528 3.82909 19.0251 2.40625 15.5 2.40625C11.9749 2.40625 8.74716 3.82909 6.39287 5.63599C5.21828 6.53748 4.28988 7.51311 3.66528 8.41313ZM4.98492 3.80151C7.65238 1.75425 11.3621 0.09375 15.5 0.09375C19.6379 0.09375 23.3476 1.75425 26.0151 3.80151C27.3514 4.8271 28.4549 5.97127 29.2345 7.09468C29.9926 8.18706 30.5312 9.38584 30.5312 10.5C30.5312 11.6142 29.9926 12.8129 29.2345 13.9053C28.4549 15.0287 27.3514 16.1729 26.0151 17.1985C23.3476 19.2458 19.6379 20.9062 15.5 20.9062C11.3621 20.9062 7.65238 19.2458 4.98492 17.1985C3.64863 16.1729 2.54508 15.0287 1.76545 13.9053C1.00736 12.8129 0.46875 11.6142 0.46875 10.5C0.46875 9.38584 1.00736 8.18706 1.76545 7.09468C2.54508 5.97127 3.64863 4.8271 4.98492 3.80151Z" fill="currentColor"/>
</svg>
