<svg width="27" height="23" viewBox="0 0 27 23" fill="none" xmlns="http://www.w3.org/2000/svg">
<path fill-rule="evenodd" clip-rule="evenodd" d="M0.010498 7.4626C0.010498 3.29934 3.66293 0.09375 7.95008 0.09375C10.16 0.09375 12.1046 1.12996 13.5001 2.47074C14.8955 1.12996 16.8401 0.09375 19.0501 0.09375C23.3372 0.09375 26.9897 3.29934 26.9897 7.4626C26.9897 10.3145 25.7735 12.8224 24.0885 14.9424C22.4065 17.0586 20.2063 18.8547 18.0996 20.3142C17.295 20.8716 16.4809 21.3859 15.7359 21.7653C15.0364 22.1216 14.232 22.4479 13.5001 22.4479C12.7682 22.4479 11.9638 22.1216 11.2642 21.7653C10.5192 21.3859 9.70521 20.8716 8.90057 20.3142C6.79391 18.8547 4.59368 17.0587 2.91164 14.9424C1.22669 12.8224 0.010498 10.3145 0.010498 7.4626ZM7.95008 2.40625C4.74457 2.40625 2.323 4.76361 2.323 7.4626C2.323 9.62632 3.2415 11.6408 4.72197 13.5035C6.20535 15.3698 8.20126 17.0165 10.2175 18.4133C10.9804 18.9419 11.699 19.3916 12.3137 19.7046C12.9738 20.0408 13.3562 20.1354 13.5001 20.1354C13.644 20.1354 14.0263 20.0408 14.6865 19.7046C15.3011 19.3916 16.0198 18.9419 16.7827 18.4133C18.7989 17.0165 20.7948 15.3698 22.2782 13.5035C23.7587 11.6408 24.6772 9.62632 24.6772 7.4626C24.6772 4.76361 22.2556 2.40625 19.0501 2.40625C17.2091 2.40625 15.4901 3.50611 14.4167 4.90209C14.1978 5.18674 13.8591 5.35355 13.5001 5.35355C13.141 5.35355 12.8023 5.18674 12.5835 4.90209C11.5101 3.50611 9.79106 2.40625 7.95008 2.40625Z" fill="currentColor"/>
</svg>
