<?xml version="1.0" encoding="UTF-8"?>
<svg xmlns="http://www.w3.org/2000/svg" xmlns:xlink="http://www.w3.org/1999/xlink" width="164px" height="35px" viewBox="0 0 162 35" version="1.1">
<g id="surface1">
<path style=" stroke:none;fill-rule:nonzero;fill:rgb(0%,0%,0%);fill-opacity:1;" d="M 0 17.5 L 0 35 L 161.917969 35 L 161.917969 0 L 0 0 Z M 15.300781 6.675781 C 15.359375 6.777344 14.710938 8.078125 13.859375 9.585938 C 13.007812 11.089844 12.316406 12.496094 12.335938 12.738281 C 12.378906 13.246094 14.628906 20.9375 16.007812 25.191406 C 16.738281 27.492188 16.941406 28.347656 16.738281 28.40625 C 16.597656 28.46875 16.007812 28.488281 15.402344 28.449219 L 14.324219 28.386719 L 14.082031 27.472656 C 11.199219 16.6875 10.589844 14.589844 10.347656 14.691406 C 10.265625 14.734375 9.636719 15.445312 8.949219 16.300781 L 7.710938 17.867188 L 7.667969 23.117188 L 7.609375 28.386719 L 6.332031 28.449219 L 5.074219 28.507812 L 5.03125 18.3125 C 5.011719 12.71875 4.992188 7.835938 4.992188 7.46875 L 4.972656 6.816406 L 7.609375 6.816406 L 7.710938 10.480469 L 7.8125 14.121094 L 9.191406 12.414062 C 9.941406 11.457031 10.976562 9.847656 11.484375 8.851562 C 12.011719 7.835938 12.519531 6.898438 12.640625 6.753906 C 12.863281 6.472656 15.136719 6.410156 15.300781 6.675781 Z M 22.929688 9.746094 C 22.929688 11.539062 23.007812 13.042969 23.109375 13.105469 C 23.292969 13.226562 24.1875 12.453125 28.976562 8.199219 C 30.863281 6.53125 30.902344 6.511719 31.957031 6.511719 C 32.566406 6.511719 33.09375 6.574219 33.132812 6.652344 C 33.195312 6.753906 33.277344 11.660156 33.296875 17.601562 L 33.378906 28.386719 L 32.179688 28.449219 C 31.347656 28.488281 30.921875 28.425781 30.820312 28.246094 C 30.71875 28.101562 30.640625 24.011719 30.640625 19.167969 C 30.640625 11.558594 30.597656 10.359375 30.335938 10.417969 C 29.949219 10.5 23.375 16.238281 23.132812 16.707031 C 23.007812 16.910156 22.929688 19.515625 22.929688 22.769531 L 22.929688 28.488281 L 20.289062 28.488281 L 20.289062 17.621094 C 20.289062 9.117188 20.351562 6.734375 20.554688 6.652344 C 20.675781 6.59375 21.285156 6.53125 21.875 6.53125 L 22.929688 6.511719 Z M 39.324219 8.199219 L 39.382812 9.789062 L 42.46875 9.726562 L 45.550781 9.664062 L 45.675781 6.492188 L 46.832031 6.550781 L 47.988281 6.613281 L 47.988281 28.386719 L 46.832031 28.449219 L 45.652344 28.507812 L 45.613281 21.835938 L 45.550781 15.160156 L 42.527344 15.097656 C 40.234375 15.058594 39.464844 15.121094 39.324219 15.300781 C 39.242188 15.445312 39.160156 18.476562 39.160156 22.039062 L 39.160156 28.507812 L 37.902344 28.449219 L 36.625 28.386719 L 36.5625 17.703125 C 36.542969 11.824219 36.5625 6.898438 36.625 6.753906 C 36.683594 6.574219 37.089844 6.511719 37.984375 6.550781 L 39.261719 6.613281 Z M 88.242188 6.796875 C 88.386719 6.960938 88.46875 7.527344 88.425781 8.078125 L 88.367188 9.054688 L 85.992188 9.117188 L 83.597656 9.175781 L 83.597656 18.597656 C 83.597656 26.515625 83.554688 28.0625 83.3125 28.265625 C 83.152344 28.40625 82.625 28.488281 82.136719 28.449219 L 81.265625 28.386719 L 81.140625 18.824219 C 81.082031 13.550781 81.019531 9.238281 81 9.199219 C 80.980469 9.175781 80.046875 9.15625 78.949219 9.15625 C 77.308594 9.15625 76.921875 9.097656 76.820312 8.832031 C 76.636719 8.34375 76.679688 7.347656 76.902344 6.898438 C 77.105469 6.53125 77.386719 6.511719 82.5625 6.511719 C 87.027344 6.511719 88.0625 6.574219 88.242188 6.796875 Z M 96.683594 7.628906 L 96.683594 8.648438 L 95.121094 8.710938 L 93.539062 8.769531 L 93.539062 10.175781 L 99.019531 10.175781 L 99.019531 12.414062 L 93.539062 12.414062 L 93.539062 26.230469 L 96.136719 26.289062 L 98.714844 26.351562 L 98.773438 26.941406 C 98.816406 27.246094 98.792969 27.734375 98.734375 28 L 98.613281 28.488281 L 94.796875 28.449219 L 91.003906 28.386719 L 90.941406 17.703125 C 90.921875 11.824219 90.941406 6.898438 91.003906 6.753906 C 91.0625 6.574219 91.773438 6.511719 93.882812 6.550781 L 96.683594 6.613281 Z M 109.347656 7.164062 C 109.527344 7.773438 111.617188 15.527344 113.929688 24.253906 C 114.460938 26.230469 114.84375 28 114.785156 28.164062 C 114.683594 28.40625 114.359375 28.488281 113.527344 28.488281 C 112.550781 28.488281 112.371094 28.425781 112.207031 28.019531 C 112.105469 27.777344 111.558594 25.414062 110.988281 22.789062 C 110.421875 20.164062 109.875 17.804688 109.773438 17.539062 C 109.589844 17.132812 109.449219 17.09375 107.761719 17.09375 C 106.769531 17.09375 105.898438 17.175781 105.835938 17.253906 C 105.773438 17.359375 105.226562 19.71875 104.597656 22.503906 C 103.988281 25.292969 103.378906 27.777344 103.277344 28.019531 C 103.117188 28.425781 102.933594 28.488281 102.0625 28.488281 C 101.390625 28.488281 101.007812 28.386719 100.925781 28.222656 C 100.863281 28.0625 101.414062 25.578125 102.144531 22.667969 C 102.851562 19.777344 104.007812 15.058594 104.699219 12.210938 C 105.367188 9.359375 105.976562 6.898438 106.019531 6.753906 C 106.078125 6.59375 106.585938 6.511719 107.621094 6.511719 L 109.121094 6.511719 Z M 128.785156 6.753906 C 129.089844 7.140625 129.210938 7.976562 129.070312 8.546875 C 128.925781 9.054688 128.886719 9.054688 126.511719 9.15625 L 124.078125 9.257812 L 123.976562 18.824219 L 123.875 28.386719 L 121.84375 28.386719 L 121.742188 18.824219 C 121.683594 13.550781 121.601562 9.238281 121.582031 9.21875 C 121.5625 9.199219 120.605469 9.136719 119.472656 9.117188 L 117.382812 9.054688 L 117.320312 8.078125 C 117.28125 7.527344 117.359375 6.960938 117.503906 6.796875 C 117.828125 6.410156 128.480469 6.371094 128.785156 6.753906 Z M 141.019531 6.980469 C 143.128906 8.382812 143.027344 11.496094 140.835938 13.492188 C 139.699219 14.507812 137.855469 15.402344 135.988281 15.832031 L 134.425781 16.199219 L 134.324219 22.28125 L 134.222656 28.386719 L 131.789062 28.386719 L 131.726562 17.4375 L 131.6875 6.511719 L 136.007812 6.511719 C 140.167969 6.511719 140.371094 6.53125 141.019531 6.980469 Z M 150.3125 12.65625 L 150.351562 18.722656 L 150.921875 18.824219 C 155.445312 19.757812 158.023438 21.609375 158.53125 24.378906 C 158.691406 25.191406 158.367188 26.597656 157.902344 27.1875 C 156.96875 28.304688 156.644531 28.386719 152.238281 28.449219 C 149.21875 28.507812 148.019531 28.46875 147.816406 28.285156 C 147.554688 28.0625 147.511719 26.574219 147.511719 18.292969 L 147.511719 8.546875 L 143.65625 8.546875 L 143.65625 6.511719 L 146.964844 6.550781 L 150.25 6.613281 Z M 60.183594 7.121094 C 61.316406 7.671875 62.597656 9.117188 63.265625 10.539062 C 63.734375 11.539062 63.8125 11.964844 63.8125 13.632812 C 63.8125 15.242188 63.734375 15.730469 63.347656 16.523438 C 62.71875 17.785156 61.542969 18.984375 60.222656 19.675781 C 59.289062 20.164062 58.925781 20.246094 57.320312 20.246094 C 55.699219 20.246094 55.394531 20.1875 54.5625 19.699219 C 53.363281 19.003906 52.023438 17.519531 51.496094 16.339844 C 50.988281 15.199219 50.96875 12.902344 51.417969 11.335938 C 52.003906 9.320312 53.445312 7.652344 55.148438 7.019531 C 56.367188 6.574219 59.148438 6.632812 60.183594 7.121094 Z M 73.429688 16.5625 C 73.574219 16.726562 73.65625 17.253906 73.613281 17.746094 L 73.554688 18.621094 L 66.65625 18.621094 L 66.59375 17.722656 C 66.492188 16.238281 66.371094 16.277344 69.960938 16.277344 C 72.519531 16.277344 73.25 16.339844 73.429688 16.5625 Z M 58.945312 22.039062 C 59.023438 22.300781 59.046875 22.914062 59.003906 23.421875 L 58.945312 24.316406 L 57.867188 24.378906 C 56.53125 24.460938 56.203125 24.214844 56.203125 23.15625 C 56.203125 21.835938 56.449219 21.570312 57.726562 21.570312 C 58.722656 21.570312 58.84375 21.609375 58.945312 22.039062 Z M 58.863281 25.78125 C 59.226562 26.210938 59.207031 28.0625 58.824219 28.304688 C 58.660156 28.40625 58.171875 28.488281 57.726562 28.488281 C 57.28125 28.488281 56.792969 28.40625 56.632812 28.304688 C 56.265625 28.0625 56.226562 26.210938 56.570312 25.78125 C 56.894531 25.394531 58.539062 25.375 58.863281 25.78125 Z M 58.863281 25.78125 "/>
<path style=" stroke:none;fill-rule:nonzero;fill:rgb(0%,0%,0%);fill-opacity:1;" d="M 39.242188 11.679688 C 39.179688 11.84375 39.160156 12.1875 39.203125 12.453125 C 39.261719 12.921875 39.261719 12.921875 42.40625 12.921875 L 45.550781 12.921875 L 45.550781 11.496094 L 42.449219 11.4375 C 39.890625 11.394531 39.34375 11.4375 39.242188 11.679688 Z M 39.242188 11.679688 "/>
<path style=" stroke:none;fill-rule:nonzero;fill:rgb(0%,0%,0%);fill-opacity:1;" d="M 107.03125 10.621094 C 106.851562 11.4375 106.648438 12.269531 106.585938 12.453125 C 106.503906 12.777344 106.648438 12.820312 107.640625 12.820312 C 108.898438 12.820312 108.820312 13.042969 108.351562 10.988281 C 108.269531 10.601562 108.128906 10.03125 108.066406 9.707031 C 107.824219 8.6875 107.398438 9.074219 107.03125 10.621094 Z M 107.03125 10.621094 "/>
<path style=" stroke:none;fill-rule:nonzero;fill:rgb(0%,0%,0%);fill-opacity:1;" d="M 106.261719 14.835938 C 106.121094 15.402344 106.242188 15.464844 107.742188 15.464844 C 109.246094 15.464844 109.367188 15.402344 109.222656 14.835938 C 109.121094 14.507812 108.941406 14.449219 107.742188 14.449219 C 106.546875 14.449219 106.363281 14.507812 106.261719 14.835938 Z M 106.261719 14.835938 "/>
<path style=" stroke:none;fill-rule:nonzero;fill:rgb(0%,0%,0%);fill-opacity:1;" d="M 134.324219 11.210938 L 134.324219 13.492188 L 135.316406 13.371094 C 137.285156 13.144531 139.621094 11.660156 139.925781 10.5 C 140.023438 10.074219 139.945312 9.828125 139.621094 9.503906 C 139.234375 9.097656 138.929688 9.054688 136.757812 8.996094 L 134.324219 8.914062 Z M 134.324219 11.210938 "/>
<path style=" stroke:none;fill-rule:nonzero;fill:rgb(0%,0%,0%);fill-opacity:1;" d="M 150.351562 23.726562 L 150.351562 26.109375 L 152.542969 26.003906 C 155.609375 25.863281 156.296875 25.4375 155.710938 24.050781 C 155.363281 23.199219 154.003906 22.261719 152.421875 21.773438 C 150.25 21.101562 150.351562 21 150.351562 23.726562 Z M 150.351562 23.726562 "/>
<path style=" stroke:none;fill-rule:nonzero;fill:rgb(0%,0%,0%);fill-opacity:1;" d="M 55.800781 9.402344 C 53.34375 10.640625 52.796875 14.488281 54.742188 16.542969 C 55.554688 17.398438 56.265625 17.703125 57.484375 17.703125 C 59.816406 17.703125 61.378906 15.871094 61.378906 13.125 C 61.378906 11.945312 61.277344 11.539062 60.832031 10.746094 C 59.816406 9.054688 57.664062 8.464844 55.800781 9.402344 Z M 55.800781 9.402344 "/>
</g>
</svg>
