<?xml version="1.0" standalone="no"?>
<!DOCTYPE svg PUBLIC "-//W3C//DTD SVG 20010904//EN"
 "http://www.w3.org/TR/2001/REC-SVG-20010904/DTD/svg10.dtd">
<svg version="1.0" xmlns="http://www.w3.org/2000/svg"
 width="348.000000pt" height="348.000000pt" viewBox="0 0 348.000000 348.000000"
 preserveAspectRatio="xMidYMid meet">

<g transform="translate(0.000000,348.000000) scale(0.100000,-0.100000)"
fill="currentColor" stroke="none">
<path d="M1595 3474 c-16 -2 -68 -9 -115 -15 -192 -26 -440 -113 -618 -218
-186 -109 -410 -313 -534 -487 -157 -220 -253 -449 -305 -729 -23 -125 -23
-445 0 -571 69 -368 221 -666 476 -927 260 -267 574 -433 955 -504 126 -24
446 -24 571 0 371 70 655 214 918 467 275 264 442 577 514 964 24 127 24 445
0 572 -72 387 -239 700 -514 964 -262 252 -553 400 -915 466 -80 14 -371 27
-433 18z m408 -268 c609 -110 1091 -593 1204 -1209 23 -125 23 -389 0 -514
-114 -618 -592 -1096 -1210 -1210 -125 -23 -389 -23 -514 0 -548 101 -995 493
-1162 1019 -277 874 303 1793 1215 1923 121 17 342 13 467 -9z"/>
<path d="M937 2543 l-117 -118 342 -342 343 -343 -343 -343 -342 -342 117
-118 118 -117 342 342 343 343 343 -343 342 -342 118 117 117 118 -342 342
-343 343 343 343 342 342 -117 118 -118 117 -342 -342 -343 -343 -343 343
-342 342 -118 -117z"/>
</g>
</svg>
