<svg width="37" height="37" viewBox="0 0 37 37" fill="none" xmlns="http://www.w3.org/2000/svg">
<path d="M24.6667 10.7918C24.6667 9.94032 25.3569 9.25009 26.2084 9.25009C27.0598 9.25009 27.75 9.94032 27.75 10.7918C27.75 11.6432 27.0598 12.3334 26.2084 12.3334C25.3569 12.3334 24.6667 11.6432 24.6667 10.7918Z" fill="#EFF2A5"/>
<path fill-rule="evenodd" clip-rule="evenodd" d="M18.5 11.1772C14.4557 11.1772 11.1771 14.4558 11.1771 18.5001C11.1771 22.5444 14.4557 25.823 18.5 25.823C22.5444 25.823 25.8229 22.5444 25.8229 18.5001C25.8229 14.4558 22.5444 11.1772 18.5 11.1772ZM13.4896 18.5001C13.4896 15.7329 15.7328 13.4897 18.5 13.4897C21.2672 13.4897 23.5104 15.7329 23.5104 18.5001C23.5104 21.2673 21.2672 23.5105 18.5 23.5105C15.7328 23.5105 13.4896 21.2673 13.4896 18.5001Z" fill="#EFF2A5"/>
<path fill-rule="evenodd" clip-rule="evenodd" d="M26.6065 4.36766C21.2622 3.77035 15.7379 3.77035 10.3936 4.36766C7.29166 4.71434 4.78748 7.1579 4.42279 10.276C3.78371 15.7401 3.78371 21.2601 4.42279 26.7242C4.78748 29.8423 7.29166 32.2858 10.3936 32.6325C15.7379 33.2298 21.2622 33.2298 26.6065 32.6325C29.7084 32.2858 32.2126 29.8423 32.5773 26.7242C33.2164 21.2601 33.2164 15.7401 32.5773 10.276C32.2126 7.1579 29.7084 4.71434 26.6065 4.36766ZM10.6504 6.66585C15.824 6.08762 21.176 6.08762 26.3496 6.66585C28.4002 6.89503 30.0428 8.51318 30.2804 10.5446C30.8986 15.8302 30.8986 21.1699 30.2804 26.4556C30.0428 28.487 28.4002 30.1052 26.3496 30.3343C21.176 30.9126 15.824 30.9126 10.6504 30.3343C8.59985 30.1052 6.95723 28.487 6.71963 26.4556C6.10143 21.1699 6.10143 15.8302 6.71963 10.5446C6.95723 8.51318 8.59985 6.89503 10.6504 6.66585Z" fill="#EFF2A5"/>
</svg>
