<svg width="29" height="25" viewBox="0 0 29 25" fill="none" xmlns="http://www.w3.org/2000/svg">
<path fill-rule="evenodd" clip-rule="evenodd" d="M0.322351 6.87805C-0.109537 10.8909 -0.0902855 15.5189 0.510692 19.5154C0.843226 21.7268 2.64801 23.4221 4.87582 23.6157L7.2041 23.8181C12.0589 24.2401 16.9411 24.2401 21.7959 23.8181L24.1242 23.6157C26.352 23.4221 28.1568 21.7268 28.4893 19.5154C29.0903 15.5189 29.1096 10.8911 28.6777 6.8783C28.6218 6.41308 28.5591 5.94849 28.4893 5.48468C28.1568 3.27333 26.352 1.57804 24.1242 1.38438L21.7959 1.18199C16.9411 0.759974 12.0589 0.759974 7.2041 1.18199L4.87582 1.38438C2.64801 1.57804 0.843226 3.27333 0.510692 5.48468C0.440959 5.94841 0.378178 6.41292 0.322351 6.87805ZM7.40436 3.4858C12.1259 3.07537 16.8741 3.07537 21.5956 3.4858L23.9239 3.6882C25.0868 3.78929 26.0289 4.67423 26.2025 5.82856C26.2205 5.94844 26.2381 6.06837 26.2551 6.18835L17.6819 10.9512C15.703 12.0506 13.2968 12.0506 11.318 10.9512L2.74486 6.18841C2.76191 6.0684 2.77945 5.94846 2.79748 5.82856C2.97106 4.67423 3.91316 3.78929 5.07609 3.6882L7.40436 3.4858ZM26.5381 8.67655C26.8371 12.1727 26.7253 15.6951 26.2025 19.1715C26.0289 20.3259 25.0868 21.2108 23.9239 21.3119L21.5956 21.5143C16.8741 21.9247 12.1259 21.9247 7.40437 21.5143L5.07609 21.3119C3.91317 21.2108 2.97106 20.3259 2.79748 19.1715C2.27472 15.6952 2.16285 12.1727 2.46189 8.67661L10.1949 12.9727C12.8722 14.4601 16.1277 14.4601 18.805 12.9727L26.5381 8.67655Z" fill="#EFF2A5"/>
</svg>
