<svg width="28" height="28" viewBox="0 0 28 28" fill="none" xmlns="http://www.w3.org/2000/svg">
<path fill-rule="evenodd" clip-rule="evenodd" d="M4.00376 11.1953C6.7592 17.1953 11.6624 21.9655 17.7578 24.5503L17.7771 24.5584L18.9546 25.0833C20.4541 25.7514 22.2166 25.2769 23.178 23.9463L25.1426 21.2272C25.2626 21.0611 25.2317 20.8301 25.0722 20.7015L21.6424 17.9345C21.4719 17.797 21.2212 17.829 21.0908 18.005L19.7559 19.8063C19.4317 20.2437 18.8462 20.3957 18.3502 20.1712C13.7924 18.1086 10.1299 14.446 8.06721 9.88824C7.84272 9.39219 7.99472 8.80674 8.43217 8.48255L10.2334 7.14769C10.4094 7.01725 10.4415 6.76653 10.3039 6.59603L7.53656 3.16576C7.40794 3.00633 7.17708 2.97536 7.011 3.09526L4.27717 5.06884C2.93778 6.03575 2.4661 7.81306 3.14977 9.31688L4.00284 11.1933C4.00314 11.194 4.00345 11.1947 4.00376 11.1953ZM16.8453 26.6751C10.2223 23.8638 4.89525 18.6791 1.90127 12.1582L1.89946 12.1543L1.04461 10.2739C-0.0948389 7.76756 0.6913 4.80539 2.92361 3.19386L5.65743 1.22029C6.82003 0.380992 8.43605 0.597758 9.33638 1.71376L12.1037 5.14404C13.0666 6.33755 12.8423 8.09258 11.6103 9.00561L10.5781 9.77052C12.3216 13.1535 15.0849 15.9168 18.4679 17.6603L19.2328 16.6281C20.1459 15.3961 21.9009 15.1718 23.0944 16.1347L26.5242 18.9017C27.6405 19.8023 27.8571 21.4189 27.017 22.5815L25.0524 25.3006C23.4501 27.5183 20.5126 28.3091 18.0135 27.1956L16.8453 26.6751Z" fill="#EFF2A5"/>
</svg>
