<svg width="28" height="28" viewBox="0 0 28 28" fill="none" xmlns="http://www.w3.org/2000/svg">
<path fill-rule="evenodd" clip-rule="evenodd" d="M17.177 18.8122C13.0912 22.0846 7.11036 21.827 3.32282 18.0395C-0.741071 13.9756 -0.741071 7.38673 3.32282 3.32284C7.38672 -0.741056 13.9756 -0.741055 18.0395 3.32284C21.827 7.11038 22.0846 13.0912 18.8122 17.177L26.7604 25.1253C27.212 25.5768 27.212 26.3089 26.7604 26.7604C26.3089 27.212 25.5768 27.212 25.1253 26.7604L17.177 18.8122ZM4.95801 16.4043C1.7972 13.2435 1.7972 8.11883 4.95801 4.95802C8.11881 1.79722 13.2435 1.79722 16.4043 4.95802C19.5628 8.11651 19.5651 13.236 16.4113 16.3973C16.4089 16.3996 16.4066 16.402 16.4043 16.4043C16.402 16.4066 16.3996 16.4089 16.3973 16.4113C13.236 19.5651 8.1165 19.5628 4.95801 16.4043Z" fill="#EFF2A5"/>
</svg>
