<svg width="37" height="37" viewBox="0 0 37 37" fill="none" xmlns="http://www.w3.org/2000/svg">
<path fill-rule="evenodd" clip-rule="evenodd" d="M8.92254 21.6137C8.99003 21.6364 9.05814 21.6525 9.12619 21.6624C9.2004 21.8368 9.29629 22.0624 9.40814 22.3262C9.68113 22.9701 10.049 23.8408 10.4286 24.7493C11.2029 26.6019 11.984 28.5116 12.1565 29.0582C12.37 29.7339 12.5957 30.1934 12.8421 30.507C12.9695 30.6692 13.1169 30.8108 13.2893 30.9181C13.3761 30.972 13.4678 31.0163 13.5635 31.0493C13.5677 31.0507 13.5719 31.0522 13.5761 31.0536C14.0695 31.2398 14.5193 31.1622 14.8009 31.0674C14.9516 31.0166 15.0735 30.9553 15.1599 30.9056C15.204 30.8803 15.2412 30.8567 15.2709 30.8367L15.2779 30.832L19.635 28.1148L24.6678 31.9733C24.7421 32.0303 24.823 32.078 24.9088 32.1155C25.5134 32.3793 26.0989 32.4713 26.6497 32.3961C27.1995 32.321 27.6361 32.09 27.961 31.83C28.2792 31.5754 28.495 31.2903 28.6293 31.0784C28.6979 30.9702 28.7494 30.8745 28.7858 30.8012C28.804 30.7643 28.8187 30.7326 28.83 30.7071L28.8446 30.6735L28.85 30.6603L28.8523 30.6547L28.8534 30.6521L28.8543 30.6497C28.8808 30.5836 28.9011 30.5151 28.9149 30.4453L33.5094 7.28097C33.5241 7.20689 33.5315 7.13154 33.5315 7.05602C33.5315 6.37767 33.2759 5.73263 32.6749 5.34121C32.1613 5.00667 31.5891 4.99227 31.2274 5.01972C30.8373 5.04933 30.477 5.14563 30.2352 5.22259C30.1094 5.26264 30.0039 5.30128 29.9279 5.33076C29.8896 5.34557 29.8583 5.35828 29.835 5.36798L29.8174 5.37536L4.05044 15.4834L4.0471 15.4846C4.03068 15.4905 4.0096 15.4984 3.98455 15.5082C3.93465 15.5276 3.8678 15.555 3.78971 15.5903C3.63742 15.6594 3.42377 15.7672 3.20454 15.9174C2.85429 16.1572 2.04878 16.8141 2.18442 17.8984C2.29263 18.7634 2.88521 19.2946 3.24626 19.5501C3.4445 19.6903 3.63284 19.7907 3.77 19.856C3.83364 19.8862 3.96575 19.9399 4.02308 19.9632L4.03754 19.9691L8.92254 21.6137ZM30.7192 7.5047L30.7156 7.50627C30.7028 7.51185 30.6898 7.51719 30.6768 7.5223L4.87854 17.6426C4.86507 17.6479 4.8515 17.6529 4.83784 17.6577L4.82348 17.6631C4.80698 17.6695 4.77919 17.6808 4.74432 17.6966C4.72454 17.7056 4.70391 17.7154 4.68286 17.7259C4.71177 17.7421 4.73944 17.7563 4.76402 17.768C4.78763 17.7792 4.80563 17.7869 4.81549 17.791L9.66037 19.422C9.74905 19.4519 9.83172 19.4914 9.9076 19.5391L25.9051 10.1743L25.9201 10.1654C25.9318 10.1585 25.947 10.1497 25.9654 10.1393C26.0018 10.1187 26.0518 10.0913 26.1113 10.0611C26.2224 10.0045 26.4 9.92066 26.6001 9.85881C26.7394 9.81575 27.1503 9.69444 27.5944 9.8369C27.8685 9.92482 28.1523 10.1138 28.3369 10.4341C28.4286 10.5931 28.4775 10.7529 28.5012 10.8992C28.564 11.1297 28.5541 11.3572 28.5049 11.5537C28.3989 11.9769 28.1016 12.307 27.831 12.5595C27.5992 12.776 24.6001 15.6679 21.6414 18.5227C20.1659 19.9464 18.7055 21.356 17.614 22.4097L16.897 23.1018L25.9496 30.0421C26.1572 30.1165 26.2799 30.1126 26.3367 30.1049C26.4044 30.0956 26.4597 30.0696 26.5163 30.0243C26.5796 29.9737 26.6349 29.9054 26.6762 29.8402L26.6779 29.8375L31.1341 7.37082C31.0679 7.38671 31.0011 7.40564 30.9366 7.42616C30.8636 7.44939 30.8034 7.47152 30.7635 7.48699C30.7438 7.49465 30.7295 7.50045 30.7218 7.50366L30.7192 7.5047ZM17.6747 26.612L15.8687 25.2273L15.4311 28.0111L17.6747 26.612ZM14.2119 22.4797L16.0079 20.7459C17.0995 19.6921 18.5601 18.2824 20.0357 16.8586L21.5349 15.4121L11.4832 21.2963L11.5372 21.4235C11.8111 22.0696 12.1806 22.9443 12.5623 23.8575C12.8477 24.5404 13.1461 25.2594 13.418 25.9251L13.8543 23.1495C13.8964 22.8819 14.0271 22.6502 14.2119 22.4797Z" fill="#EFF2A5"/>
</svg>
