<svg width="37" height="37" viewBox="0 0 37 37" fill="none" xmlns="http://www.w3.org/2000/svg">
<path fill-rule="evenodd" clip-rule="evenodd" d="M36.0826 26.0003C35.2441 24.3114 34.1392 22.7686 32.8105 21.4312C32.3583 20.9056 31.8281 20.3868 31.4142 19.9819L31.3564 19.9253C31.1429 19.7164 30.9665 19.5429 30.8221 19.3935C32.639 16.8671 34.1941 14.1618 35.4629 11.3193L35.5141 11.2047L35.55 11.0843C35.7167 10.5248 35.9088 9.46098 35.2294 8.49955C34.5271 7.50582 33.4026 7.32661 32.6497 7.32661H29.1854C28.4632 7.2935 27.7481 7.48874 27.1422 7.88567C26.5317 8.28561 26.0647 8.86895 25.8078 9.55086C25.0617 11.3279 24.1282 13.0182 23.0243 14.5935V10.5338C23.0243 10.009 22.9749 9.13121 22.413 8.39028C21.7403 7.50315 20.7673 7.32661 20.0919 7.32661H14.595C13.8869 7.31023 13.1981 7.56346 12.6688 8.03616C12.1267 8.52024 11.7945 9.19644 11.7426 9.92137L11.7377 9.99004V10.0589C11.7377 10.8073 12.0343 11.3594 12.2712 11.7066C12.3773 11.8621 12.4908 12.0036 12.5625 12.093L12.579 12.1136C12.6554 12.2089 12.7064 12.2725 12.7576 12.3421C12.8923 12.5253 13.086 12.8078 13.1408 13.5386V15.8094C12.1932 14.2516 11.1935 12.1786 10.4413 9.96455L10.4298 9.93057L10.417 9.89705C10.2294 9.40584 9.9286 8.69112 9.32613 8.14419C8.62231 7.50524 7.78984 7.32661 7.03276 7.32661H3.51785C2.75193 7.32661 1.82858 7.50579 1.13962 8.23257C0.462109 8.94726 0.385376 9.80365 0.385376 10.259V10.4642L0.428603 10.6649C1.40217 15.1837 3.40822 19.4153 6.28913 23.029C7.59525 25.0888 9.36509 26.8153 11.4578 28.0701C13.584 29.3449 15.9825 30.0963 18.456 30.2626L18.5205 30.2669H18.5852C19.7042 30.2669 20.8707 30.1703 21.7479 29.5858C22.9313 28.7972 23.0243 27.586 23.0243 26.9825V25.2282C23.328 25.4737 23.7048 25.8042 24.166 26.2483C24.7236 26.8065 25.1676 27.29 25.5485 27.7122L25.7517 27.9381L25.7529 27.9394C26.0486 28.2687 26.3397 28.5929 26.6047 28.8593C26.9379 29.1942 27.3485 29.5632 27.8648 29.8358C28.4238 30.131 29.0106 30.2645 29.6338 30.2645H33.1511C33.8921 30.2645 34.955 30.0893 35.7022 29.223C36.5165 28.2788 36.4543 27.1217 36.1983 26.2901L36.1522 26.1405L36.0826 26.0003ZM27.2655 26.1631C26.8695 25.7242 26.392 25.2039 25.7887 24.6006L25.7837 24.5957C23.693 22.58 22.7162 22.2288 22.0254 22.2288C21.6581 22.2288 21.2516 22.27 20.9877 22.5987C20.8632 22.7538 20.7978 22.9408 20.7611 23.1359C20.7245 23.3306 20.7118 23.5592 20.7118 23.8196V26.9825C20.7118 27.3754 20.6473 27.5403 20.4655 27.6614C20.2235 27.8227 19.7063 27.9534 18.5981 27.9544C16.4948 27.811 14.4553 27.171 12.647 26.0867C10.8351 25.0003 9.30713 23.4989 8.18909 21.7063L8.17693 21.6868L8.16253 21.6689C5.47808 18.3276 3.6075 14.4081 2.69834 10.2199C2.70327 10.018 2.74701 9.89827 2.81788 9.82351C2.89091 9.74647 3.06785 9.63911 3.51785 9.63911H7.03276C7.42377 9.63911 7.62612 9.72416 7.77176 9.85638C7.93687 10.0063 8.08007 10.2608 8.25405 10.7153C9.11679 13.2529 10.2835 15.6259 11.3883 17.3708C11.9405 18.243 12.4839 18.9689 12.9735 19.4819C13.218 19.738 13.4577 19.9502 13.6864 20.1011C13.9078 20.2471 14.1588 20.3622 14.417 20.3622C14.5532 20.3622 14.7125 20.3482 14.8659 20.2803C15.031 20.2072 15.159 20.0855 15.2495 19.9223C15.4095 19.6337 15.4533 19.2061 15.4533 18.6461V13.4604L15.4525 13.4482C15.3726 12.1866 14.9917 11.4769 14.6208 10.9724C14.5395 10.8618 14.4594 10.762 14.3892 10.6746L14.37 10.6506C14.293 10.5546 14.2317 10.477 14.1814 10.4032C14.0891 10.268 14.0533 10.1737 14.0504 10.0727C14.0625 9.95274 14.119 9.84147 14.2091 9.76097C14.3027 9.67741 14.4251 9.63391 14.5505 9.63911H20.0919C20.4096 9.63911 20.5166 9.71663 20.5705 9.78763C20.6465 9.88787 20.7118 10.0963 20.7118 10.5338V17.5154C20.7118 18.3447 21.0941 18.9061 21.6493 18.9061C22.2881 18.9061 22.7486 18.5185 23.5539 17.7132L23.5674 17.6998L23.5794 17.6851C25.3844 15.4839 26.8596 13.0318 27.9576 10.4055L27.9646 10.3858C28.0472 10.1537 28.2034 9.95502 28.4095 9.82004C28.6155 9.68506 28.86 9.6212 29.1058 9.63819L29.119 9.63911H32.6497C33.1312 9.63911 33.2896 9.76165 33.3408 9.83412C33.3953 9.91123 33.4332 10.0765 33.3406 10.4006C32.0748 13.2317 30.5093 15.919 28.6719 18.4174L28.6604 18.4351C28.4819 18.7079 28.2862 19.0097 28.2579 19.3563C28.2275 19.7285 28.3886 20.0668 28.6704 20.4295C28.8757 20.7331 29.2992 21.1476 29.7289 21.5682L29.7694 21.6078C30.2198 22.0487 30.7078 22.5263 31.0996 22.9887L31.11 23.0011L31.1215 23.0125C32.2893 24.1773 33.2603 25.5238 33.9968 26.9996C34.1143 27.4014 34.0424 27.6067 33.951 27.7126C33.8441 27.8366 33.6047 27.952 33.1511 27.952H29.6338C29.3592 27.952 29.1471 27.8979 28.9446 27.7909C28.7335 27.6795 28.5164 27.5021 28.2442 27.2285C28.025 27.008 27.7854 26.7414 27.4932 26.4162C27.4207 26.3355 27.3449 26.2511 27.2655 26.1631Z" fill="#EFF2A5"/>
</svg>
