<svg width="37" height="37" viewBox="0 0 37 37" fill="none" xmlns="http://www.w3.org/2000/svg">
<path d="M13.6992 11.0534C13.9813 11.061 14.294 11.0762 14.5915 11.7367C14.7888 12.1763 15.1211 12.9857 15.3919 13.645C15.6025 14.1581 15.7759 14.5802 15.8193 14.6667C15.9184 14.864 15.9794 15.0917 15.8498 15.3573C15.8345 15.3887 15.8201 15.4186 15.8062 15.4475C15.7022 15.6633 15.6282 15.8169 15.4533 16.0177C15.3814 16.1003 15.3064 16.1908 15.2318 16.281C15.1006 16.4396 14.9701 16.5972 14.8584 16.7085C14.6601 16.9057 14.4541 17.1184 14.6829 17.5131C14.9118 17.9078 15.7126 19.2058 16.8946 20.2533C18.1655 21.3847 19.2706 21.8615 19.8292 22.1026C19.9376 22.1493 20.0255 22.1873 20.09 22.2193C20.4866 22.4167 20.723 22.3863 20.9517 22.1207C21.1807 21.8549 21.9432 20.9668 22.2102 20.5721C22.4695 20.1775 22.7363 20.2382 23.1025 20.3748C23.4685 20.5114 25.4208 21.4678 25.8173 21.6651C25.8957 21.7042 25.969 21.7393 26.037 21.7719C26.3129 21.9042 26.5005 21.9942 26.58 22.1282C26.6791 22.2952 26.6791 23.0847 26.3512 24.0107C26.0157 24.9368 24.3989 25.8249 23.6667 25.8932C23.5974 25.8997 23.5285 25.908 23.4575 25.9166C22.7865 25.9978 21.9348 26.1008 18.9003 24.9064C15.1611 23.436 12.6929 19.7878 12.1939 19.0502C12.1545 18.992 12.1274 18.9519 12.1129 18.9325L12.1044 18.9212C11.8774 18.6174 10.4884 16.7589 10.4884 14.8413C10.4884 13.0067 11.3922 12.0515 11.8044 11.6159C11.8305 11.5883 11.8547 11.5627 11.8765 11.5392C12.2425 11.1445 12.6697 11.0459 12.9365 11.0459C13.2035 11.0459 13.4704 11.0459 13.6992 11.0534Z" fill="#EFF2A5"/>
<path fill-rule="evenodd" clip-rule="evenodd" d="M3.36729 32.8859C3.24116 33.3437 3.65816 33.7663 4.11765 33.6463L11.2206 31.791C13.4628 33.0055 15.9871 33.6507 18.5573 33.6507H18.5649C27.0224 33.6507 33.9167 26.7964 33.9167 18.3708C33.9167 14.2871 32.3226 10.4462 29.4247 7.56165C26.5268 4.67728 22.6754 3.08325 18.5647 3.08325C10.1073 3.08325 3.21301 9.93758 3.21301 18.3633C3.21205 21.0437 3.91955 23.6772 5.26448 25.9993L3.36729 32.8859ZM7.49393 26.6135C7.65861 26.0158 7.57634 25.3769 7.26559 24.8404C6.12453 22.8702 5.5247 20.6359 5.52551 18.3633C5.52551 11.2257 11.3735 5.39575 18.5647 5.39575C22.0642 5.39575 25.3289 6.74777 27.7934 9.20067C30.255 11.6509 31.6042 14.9018 31.6042 18.3708C31.6042 25.5082 25.7563 31.3382 18.5649 31.3382H18.5573C16.3735 31.3382 14.2275 30.7898 12.322 29.7577C11.8063 29.4783 11.2037 29.4054 10.6362 29.5536L6.37752 30.666L7.49393 26.6135Z" fill="#EFF2A5"/>
</svg>
