<svg width="37" height="37" viewBox="0 0 37 37" fill="none" xmlns="http://www.w3.org/2000/svg">
<path fill-rule="evenodd" clip-rule="evenodd" d="M16.0116 12.8834C15.6544 12.6691 15.2095 12.6635 14.847 12.8687C14.4845 13.074 14.2604 13.4583 14.2604 13.8749V23.1249C14.2604 23.5415 14.4845 23.9258 14.847 24.1311C15.2095 24.3363 15.6544 24.3307 16.0116 24.1164L23.7199 19.4914C24.0682 19.2824 24.2813 18.9061 24.2813 18.4999C24.2813 18.0938 24.0682 17.7174 23.7199 17.5084L16.0116 12.8834ZM20.8777 18.4999L16.5729 21.0827V15.9171L20.8777 18.4999Z" fill="#EFF2A5"/>
<path fill-rule="evenodd" clip-rule="evenodd" d="M26.2557 7.15521C21.0931 6.75132 15.907 6.75132 10.7445 7.15521L7.29008 7.42547C5.18945 7.58981 3.47098 9.16417 3.12374 11.2424C2.3209 16.0474 2.3209 20.9524 3.12374 25.7574C3.47098 27.8356 5.18945 29.41 7.29008 29.5743L10.7445 29.8446C15.907 30.2485 21.0931 30.2485 26.2556 29.8446L29.7101 29.5743C31.8107 29.41 33.5292 27.8356 33.8764 25.7574C34.6792 20.9524 34.6792 16.0474 33.8764 11.2424C33.5292 9.16417 31.8107 7.58981 29.7101 7.42547L26.2557 7.15521ZM10.9249 9.46067C15.9673 9.06617 21.0328 9.06617 26.0753 9.46067L29.5297 9.73093C30.5713 9.81241 31.4233 10.593 31.5955 11.6235C32.3562 16.1762 32.3562 20.8236 31.5955 25.3763C31.4233 26.4068 30.5713 27.1874 29.5297 27.2689L26.0753 27.5391C21.0328 27.9336 15.9673 27.9336 10.9249 27.5391L7.47045 27.2689C6.42888 27.1874 5.5768 26.4068 5.40462 25.3763C4.64393 20.8236 4.64393 16.1762 5.40462 11.6235C5.5768 10.593 6.42888 9.81241 7.47045 9.73093L10.9249 9.46067Z" fill="#EFF2A5"/>
</svg>
